{"title":"Hunterrr (2015) BluRay 720p x264 AAC TaRa.mkv","uid":15485703,"size":1214548187,"categoryP":"video","categoryS":"hd___movies","magnet":"?xt=urn:btih:254f8595d64f1d7ab066d7f0b8cdc40bc39c0f1a&amp;dn=Hunterrr+%282015%29+BluRay+720p+x264+AAC+TaRa.mkv&amp;tr=udp%3A%2F%2Ftracker.leechers-paradise.org%3A6969&amp;tr=udp%3A%2F%2Fzer0day.ch%3A1337&amp;tr=udp%3A%2F%2Fopen.demonii.com%3A1337&amp;tr=udp%3A%2F%2Ftracker.coppersurfer.tk%3A6969&amp;tr=udp%3A%2F%2Fexodus.desync.com%3A6969","seeders":1,"leechers":1,"uploader":"MdTaRa","files":1,"time":1470318868,"description":"========================================================================\r\nGeneral\r\nHunterrr (2015) BluRay 720p x264 AAC TaRa.mkv\r\nFormat                      : Matroska\r\nFormat version              : Version 4 / Version 2\r\nFile size                   : 1.13 GiB\r\nDuration                    : 2 h 20 min\r\nOverall bit rate mode       : Variable\r\nOverall bit rate            : 1 156 kb/s\r\n========================================================================\r\nVideo\r\nID                          : 1\r\nFormat                      : AVC\r\nFormat/Info                 : Advanced Video Codec\r\nFormat profile              :   \r\nFormat settings, CABAC      : Yes\r\nFormat settings, ReFrames   : 3 frames\r\nCodec ID                    : V_MPEG4/ISO/AVC\r\nDuration                    : 2 h 20 min\r\nBit rate mode               : Variable\r\nBit rate                    : 1 058 kb/s\r\nMaximum bit rate            : 40.0 Mb/s\r\nWidth                       : 1 272 pixels\r\nHeight                      : 544 pixels\r\nDisplay aspect ratio        : 2.35:1\r\nFrame rate mode             : Constant\r\nFrame rate                  : 25.000 FPS\r\nColor space                 : YUV\r\nChroma subsampling          : 4:2:0\r\nBit depth                   : 8 bits\r\nScan type                   : Progressive\r\nBits/(Pixel*Frame)          : 0.061\r\nStream size                 : 1.03 GiB (91%)\r\nTitle                       : .....::::: TaRa ::::::.....\r\nLanguage                    : Hindi\r\nDefault                     : Yes\r\nForced                      : No\r\n=========================================================================\r\nAudio\r\nID                          : 2\r\nFormat                      : AAC\r\nFormat/Info                 : Advanced Audio Codec\r\nFormat profile              : LC\r\nCodec ID                    : A_AAC\r\nDuration                    : 2 h 20 min\r\nBit rate                    : 96.0 kb/s\r\nChannel(s)                  : 2 channels\r\nChannel positions           : Front: L R\r\nSampling rate               : 48.0 kHz\r\nFrame rate                  : 46.875 FPS (1024 spf)\r\nCompression mode            : Lossy\r\nDelay relative to video     : 9 ms\r\nStream size                 : 96.1 MiB (8%)\r\nTitle                       : .....::::: TaRa ::::::.....\r\nLanguage                    : Hindi\r\nDefault                     : Yes\r\nForced                      : No\r\n============================================================================ \nhttp://imgur.com/u591AVL \nhttp://imgur.com/f1wTMUh","torrent":{"xt":"urn:btih:254f8595d64f1d7ab066d7f0b8cdc40bc39c0f1a","amp;dn":"Hunterrr+%282015%29+BluRay+720p+x264+AAC+TaRa.mkv","amp;tr":["udp%3A%2F%2Ftracker.leechers-paradise.org%3A6969","udp%3A%2F%2Fzer0day.ch%3A1337","udp%3A%2F%2Fopen.demonii.com%3A1337","udp%3A%2F%2Ftracker.coppersurfer.tk%3A6969","udp%3A%2F%2Fexodus.desync.com%3A6969"],"infoHash":"254f8595d64f1d7ab066d7f0b8cdc40bc39c0f1a","infoHashBuffer":{"type":"Buffer","data":[37,79,133,149,214,79,29,122,176,102,215,240,184,205,196,11,195,156,15,26]},"announce":[],"urlList":[]}}